<svg width="64" height="24" viewBox="0 0 64 24" xmlns="http://www.w3.org/2000/svg">
    <g fill="#FFF" fill-rule="nonzero">
        <path d="M36.588 14.936c.005-1.636-1.088-2.878-2.828-3.359.467-.237.839-.532 1.115-.89.367-.48.537-1.069.537-1.756a3.13 3.13 0 0 0-1.043-2.345c-.715-.645-1.796-1.061-3.271-1.061h-4.08v12.962h4.791c1.709 0 2.907-.461 3.676-1.145a3.218 3.218 0 0 0 1.103-2.406M41 21H22V3h19v18z"/>
        <path d="M34.242 14.675c0 .43-.134.86-.52 1.198-.383.335-1.04.59-2.138.59h-2.208v-3.538h2.112c.98 0 1.675.2 2.116.512.435.313.632.723.637 1.238M32.454 10.44c.409-.297.61-.714.61-1.342 0-.432-.122-.8-.435-1.077-.308-.275-.838-.472-1.693-.472h-1.56v3.353h1.073c.928 0 1.59-.166 2.005-.462M14.582 14.936c.006-1.636-1.082-2.878-2.827-3.359.472-.237.844-.532 1.115-.89.365-.48.534-1.069.534-1.756 0-.844-.329-1.704-1.04-2.345-.71-.645-1.791-1.061-3.265-1.061h-4.08v12.962h4.784c1.708 0 2.907-.461 3.676-1.145a3.2 3.2 0 0 0 1.103-2.406M0 21V3h19v18H0z"/>
        <path d="M10.413 10.44c.414-.297.61-.714.615-1.342 0-.432-.126-.8-.435-1.077-.314-.275-.842-.472-1.692-.472h-1.56v3.353h1.073c.923 0 1.59-.166 2-.462M9.446 12.925H7.341v3.539h2.202c1.097 0 1.76-.256 2.142-.591.382-.338.516-.768.516-1.198-.005-.515-.197-.925-.637-1.238-.435-.313-1.135-.512-2.118-.512zM59.331 15.02l-.309.187c-1.474.904-3.087 1.39-4.55 1.39-3.131-.013-5.199-1.867-5.209-4.57.011-2.645 2.165-4.6 5.124-4.607 1.517.003 2.886.393 4.51 1.284l.296.164V6.455l-.127-.048c-1.837-.723-3.257-1.047-4.658-1.047-2.164 0-4.052.716-5.39 1.93-1.335 1.218-2.132 2.934-2.132 4.905 0 1.37.562 2.98 1.782 4.257 1.209 1.277 3.068 2.207 5.623 2.207h.013c2.12 0 3.585-.472 4.91-1.129l.117-.052v-2.457zM63 21H44V3h19v18z"/>
    </g>
</svg>
