<svg width="24" height="24" viewBox="0 0 24 24" xmlns="http://www.w3.org/2000/svg">
    <path d="m19.364 6 .122.005c.797.059 1.435.692 1.507 1.49l.007.152v10.706l-.004.123a1.642 1.642 0 0 1-1.482 1.517l-.15.007H4.636l-.122-.005a1.642 1.642 0 0 1-1.507-1.49L3 18.352V7.647l.004-.123a1.642 1.642 0 0 1 1.482-1.517L4.636 6h14.728zm-8.992 4.29c-.319.135-.363.504-.369.57v4.353s-.058.45.395.696c.447.243.96-.073 1.032-.119l.008-.005 2.88-1.977s.419-.295.419-.695c0-.338-.361-.58-.433-.624l-.013-.008-2.967-2.025c-.262-.16-.601-.313-.952-.166zm1.976-4.43-.023.02a.496.496 0 0 1-.04.031l-.008.005-.029.018a.5.5 0 0 1-.037.02l.066-.038a.501.501 0 0 1-.554 0l.067.038a.5.5 0 0 1-.038-.02l-.03-.018a.51.51 0 0 1-.07-.056l-.011-.012-.016-.018a.496.496 0 0 1-.03-.037l-.011-.016-2-3a.5.5 0 0 1 .776-.625l.056.07L12 4.599l1.584-2.375.057-.07a.5.5 0 0 1 .775.624l-2 3a.509.509 0 0 1-.036.048l-.02.023-.012.012z" fill="#FFF" fill-rule="nonzero"/>
</svg>
