<svg xmlns="http://www.w3.org/2000/svg" width="20" height="20" viewBox="0 0 20 20">
    <g fill="none" fill-rule="evenodd" stroke="#A5A5A5">
        <path d="M7.566.588c-.002 0-5.252.811-5.574 6.079v5.673c.015.528-.093 1.052-.34 1.578-.33.55-.85 1.392-.926 1.516 0 0-.691.904.327 1.06l15.444.002s1.4.109.801-1.152l-1.27-1.806c-.227-.391-.333-.842-.303-1.294l-.054-5.636c-.038-.348-.681-5.471-5.84-6.037C9.057.479 8.328.468 7.565.588z" transform="translate(1)"/>
        <path d="M5.6 16.5c.244 1.002 1.01 3 3.247 3 1.17 0 1.989-.381 2.546-.918.658-.634.956-1.467 1.06-2.082H5.602z" transform="translate(1)"/>
    </g>
</svg>
