<svg xmlns="http://www.w3.org/2000/svg" width="20" height="20" viewBox="0 0 20 20">
    <g fill="none" fill-rule="evenodd" transform="translate(0 1)">
        <circle cx="9.5" cy="8.5" r="9" stroke="#A5A5A5"/>
        <path fill="#A5A5A5" fill-rule="nonzero" d="M10.009 12.86c1.045 0 1.837-.418 2.475-1.155l-.561-.638c-.517.561-1.1.902-1.87.902-1.54 0-2.508-1.276-2.508-3.311 0-2.013 1.012-3.267 2.541-3.267.693 0 1.232.319 1.65.77l.55-.66c-.462-.517-1.232-1.001-2.211-1.001C8.029 4.5 6.5 6.084 6.5 8.691c0 2.618 1.507 4.169 3.509 4.169z"/>
    </g>
</svg>
