<svg xmlns="http://www.w3.org/2000/svg" width="20" height="20" viewBox="0 0 20 20">
    <g fill="none" fill-rule="evenodd">
        <path stroke="#A5A5A5" d="M18 3.5H2c-.414 0-.79.168-1.06.44C.667 4.21.5 4.585.5 5v2.55c.49.1.928.342 1.268.682C2.22 8.685 2.5 9.31 2.5 10s-.28 1.315-.732 1.768c-.34.34-.778.583-1.268.682V15c0 .414.168.79.44 1.06.27.272.646.44 1.06.44h16c.414 0 .79-.168 1.06-.44.272-.27.44-.646.44-1.06V5c0-.414-.168-.79-.44-1.06-.27-.272-.646-.44-1.06-.44z"/>
        <path fill="#A5A5A5" fill-rule="nonzero" d="M4.944 11.378c.256 0 .592-.039.867-.308l-.217-.313c-.183.189-.42.24-.634.24-.288 0-.547-.183-.547-.672v-.237c0-.573.275-.71.55-.71.208 0 .384.032.573.192l.22-.314C5.524 9.067 5.29 9 4.964 9 4.43 9 4 9.304 4 9.995v.413c0 .688.442.97.944.97zm2.138 0c.53 0 .976-.272.976-.999V10c0-.714-.452-.999-.976-.999-.522 0-.976.285-.976.998v.381c0 .727.444.999.976.999zm0-.375c-.308 0-.564-.144-.564-.675v-.278c0-.532.256-.676.564-.676.313 0 .563.144.563.676v.278c0 .531-.25.675-.563.675zm2.265.375c.58 0 .896-.23.896-.986V9.035h-.41v1.363c0 .455-.15.608-.486.608-.336 0-.486-.153-.486-.608V9.035h-.41v1.357c0 .755.32.986.896.986zm1.783-.036v-.886h.46c.535 0 .79-.32.79-.694v-.068c0-.377-.236-.659-.79-.659h-.87v2.307h.41zm.406-1.232h-.406v-.732h.441c.234 0 .397.067.397.32v.057c0 .269-.163.355-.432.355zm2.112 1.268c.531 0 .976-.272.976-.999V10c0-.714-.451-.999-.976-.999-.522 0-.976.285-.976.998v.381c0 .727.445.999.976.999zm0-.375c-.307 0-.563-.144-.563-.675v-.278c0-.532.256-.676.563-.676.314 0 .563.144.563.676v.278c0 .531-.25.675-.563.675zm1.795.34V9.585c.029.13.087.252.144.355l.79 1.401h.471V9.035h-.384v1.763c-.035-.15-.1-.278-.147-.364l-.787-1.399h-.47v2.307h.383z"/>
    </g>
</svg>
