<svg xmlns="http://www.w3.org/2000/svg" width="20" height="20" viewBox="0 0 20 20">
    <g fill="none" fill-rule="evenodd">
        <path stroke="#A5A5A5" d="M17.999 3.5h-16c-.415 0-.79.168-1.061.44-.271.27-.44.646-.44 1.06v2.55c.49.1.928.342 1.268.682C2.22 8.685 2.5 9.31 2.5 10s-.28 1.315-.733 1.768c-.34.34-.778.583-1.267.682V15c0 .414.168.79.439 1.06.271.272.646.44 1.06.44h16c.415 0 .79-.168 1.061-.44.272-.27.44-.646.44-1.06v-2.55c-.49-.1-.928-.342-1.268-.682-.452-.453-.732-1.078-.732-1.768s.28-1.315.732-1.768c.34-.34.778-.583 1.268-.682V5c0-.414-.168-.79-.44-1.06-.271-.272-.646-.44-1.06-.44z"/>
        <circle cx="5.5" cy="6.5" r="1" fill="#A5A5A5" transform="rotate(90 5.5 6.5)"/>
        <circle cx="5.5" cy="8.5" r="1" fill="#A5A5A5" transform="rotate(90 5.5 8.5)"/>
        <circle cx="5.5" cy="10.5" r="1" fill="#A5A5A5" transform="rotate(90 5.5 10.5)"/>
        <circle cx="5.5" cy="12.5" r="1" fill="#A5A5A5" transform="rotate(90 5.5 12.5)"/>
        <circle cx="5.5" cy="14.5" r="1" fill="#A5A5A5" transform="rotate(90 5.5 14.5)"/>
    </g>
</svg>
