<svg width="72" height="72" viewBox="0 0 72 72" xmlns="http://www.w3.org/2000/svg">
    <g fill="none" fill-rule="evenodd">
        <path d="M70.5 36c0 19.054-15.446 34.5-34.5 34.5C16.946 70.5 1.5 55.054 1.5 36 1.5 16.946 16.946 1.5 36 1.5c19.054 0 34.5 15.446 34.5 34.5z" fill="#FFC930" fill-rule="nonzero"/>
        <path d="M36 68.4c17.894 0 32.4-14.506 32.4-32.4S53.894 3.6 36 3.6 3.6 18.106 3.6 36 18.106 68.4 36 68.4zm0 3.6c19.882 0 36-16.118 36-36S55.882 0 36 0 0 16.118 0 36s16.118 36 36 36z" fill="#FFF"/>
        <path fill="#000" fill-rule="nonzero" d="M12.6 25.776v-7.727h13.462v35.478h-8.65V25.776zM56.728 25.29H41.564v6.707c.648-.713 1.556-1.296 2.722-1.75 1.166-.453 2.43-.68 3.79-.68 2.43 0 4.44.55 6.027 1.652 1.62 1.102 2.803 2.527 3.548 4.277.745 1.75 1.118 3.645 1.118 5.686 0 3.791-1.07 6.804-3.208 9.04-2.138 2.203-5.151 3.305-9.04 3.305-2.591 0-4.843-.438-6.755-1.313-1.911-.907-3.386-2.154-4.422-3.742-1.037-1.587-1.604-3.418-1.701-5.492h8.116a4.489 4.489 0 0 0 1.41 2.528c.744.648 1.765.972 3.061.972 1.523 0 2.657-.486 3.402-1.458.745-.972 1.118-2.268 1.118-3.888 0-1.588-.389-2.803-1.167-3.645-.777-.843-1.911-1.264-3.402-1.264-1.101 0-2.008.275-2.721.826a3.63 3.63 0 0 0-1.41 2.09h-8.019V18h22.697v7.29z"/>
    </g>
</svg>
