<svg width="72" height="72" viewBox="0 0 72 72" xmlns="http://www.w3.org/2000/svg">
    <g fill="none" fill-rule="evenodd">
        <path d="M70.5 36c0 19.054-15.446 34.5-34.5 34.5C16.946 70.5 1.5 55.054 1.5 36 1.5 16.946 16.946 1.5 36 1.5c19.054 0 34.5 15.446 34.5 34.5z" fill="#FFC930" fill-rule="nonzero"/>
        <path d="M36 68.4c17.894 0 32.4-14.506 32.4-32.4S53.894 3.6 36 3.6 3.6 18.106 3.6 36 18.106 68.4 36 68.4zm0 3.6c19.882 0 36-16.118 36-36S55.882 0 36 0 0 16.118 0 36s16.118 36 36 36z" fill="#FFF"/>
        <path fill="#000" fill-rule="nonzero" d="M13.5 26.554v-7.728h13.462v35.478h-8.65v-27.75zM41.59 43.904c.486 2.56 1.976 3.84 4.47 3.84 1.718 0 2.933-.762 3.646-2.285.713-1.523 1.069-4.001 1.069-7.436-.713 1.005-1.685 1.782-2.916 2.333-1.231.55-2.608.826-4.131.826-2.074 0-3.92-.421-5.54-1.263-1.62-.875-2.9-2.155-3.84-3.84-.907-1.717-1.36-3.79-1.36-6.22 0-2.398.485-4.488 1.457-6.27a10.383 10.383 0 0 1 4.229-4.131C40.52 18.486 42.69 18 45.186 18c4.795 0 8.149 1.49 10.06 4.471 1.912 2.981 2.868 7.371 2.868 13.17 0 4.213-.39 7.696-1.167 10.45-.745 2.721-2.025 4.795-3.84 6.22-1.781 1.426-4.227 2.139-7.338 2.139-2.462 0-4.568-.486-6.318-1.458-1.717-.972-3.045-2.252-3.985-3.84-.907-1.587-1.426-3.337-1.555-5.248h7.679zm4.033-9.283c1.361 0 2.447-.405 3.257-1.215.81-.842 1.215-1.976 1.215-3.402 0-1.555-.422-2.754-1.264-3.596-.842-.843-1.976-1.264-3.402-1.264-1.426 0-2.56.438-3.402 1.312-.81.843-1.215 2.01-1.215 3.5 0 1.393.405 2.527 1.215 3.402.842.842 2.041 1.263 3.596 1.263z"/>
    </g>
</svg>
