<svg width="72" height="72" viewBox="0 0 72 72" xmlns="http://www.w3.org/2000/svg" xmlns:xlink="http://www.w3.org/1999/xlink">
    <defs>
        <path id="66h6pmnuqa" d="M0 .274h71.721v71.16H.001z"/>
        <path id="t0mwmtjf7c" d="M0 71.726h71.721V.566H0z"/>
    </defs>
    <g fill="none" fill-rule="evenodd">
        <g transform="translate(0 .293)">
            <mask id="oijuvuboub" fill="#fff">
                <use xlink:href="#66h6pmnuqa"/>
            </mask>
            <path d="M63.638 71.433H8.081c-4.461 0-8.08-3.59-8.08-8.02V8.298C0 3.866 3.62.273 8.08.273h55.557c4.466 0 8.083 3.593 8.083 8.026v55.113c0 4.431-3.617 8.021-8.083 8.021" fill="#000" mask="url(#oijuvuboub)"/>
        </g>
        <path d="M28.112 49.635c-1.636.02-2.725-1.453-2-2.715l6.278-7.549.168-8.641-9.203-5.407c-.578-.34-.924-.904-.924-1.508 0-1.465 1.914-2.334 3.325-1.505l6.89 4.05.024-1.409c-1.79-.934-2.747-2.766-2.242-4.607.492-1.79 2.362-3.013 4.467-3.203v-2.907H18.168c-3.106.778-5.559 3.168-6.4 6.225v26.99c.838 3.06 3.291 5.447 6.394 6.225h16.733v-10.88l-4.823 5.748c-.354.66-1.115 1.084-1.96 1.093M55.957 5.991H36.185v40.544h19.772c2.559 0 4.64-1.788 4.64-3.988V9.978c0-2.201-2.081-3.987-4.64-3.987zm2.785 36.556c0 1.321-1.248 2.394-2.785 2.394H38.039v-8.454l3.612 4.358c.352.66 1.117 1.088 1.96 1.099 1.638.02 2.72-1.453 2-2.713l-6.282-7.555-.167-8.64 9.203-5.409c.58-.337.929-.903.929-1.503 0-1.467-1.92-2.335-3.328-1.507l-6.889 4.048-.027-1.406c1.796-.933 2.748-2.765 2.245-4.605-.393-1.435-1.68-2.515-3.256-2.983V7.584h17.918c1.537 0 2.785 1.072 2.785 2.394v32.569zM22.468 62.538h-1.354v1.694h-4.365v1.167h10.04v-1.167h-4.321z" fill="#FEFEFE"/>
        <mask id="p9mrsu7mxd" fill="#fff">
            <use xlink:href="#t0mwmtjf7c"/>
        </mask>
        <path d="M19.302 61.112h4.804v-1.938h-4.804v1.938zM17.97 62.25h7.457v-4.233H17.97v4.233zM28.694 61.233h2.255v-1.2h-2.255v1.2zm3.599-3.792h-1.344v1.412h-2.255v-1.446h-1.331v4.963h4.93V57.44z" fill="#FEFEFE" mask="url(#p9mrsu7mxd)"/>
        <path d="M33.758 64.975c-.358.12-1.034.18-2.01.18-.982 0-1.661-.06-2.023-.18-.323-.106-.484-.26-.484-.473 0-.213.16-.37.488-.477.358-.119 1.04-.178 2.019-.178.965 0 1.638.06 2.004.178.33.109.49.265.49.477 0 .21-.16.367-.484.473zm1.589-8.024H33.99v5.96c-.56-.135-1.3-.2-2.242-.2-1.372 0-2.318.135-2.896.406-.596.283-.895.75-.895 1.385 0 .627.3 1.09.9 1.376.58.279 1.527.412 2.89.412 1.342 0 2.312-.136 2.885-.406.596-.285.897-.75.897-1.382 0-.628-.306-1.092-.907-1.376a3.101 3.101 0 0 0-.505-.184h1.23v-2.169h1.669v-1.158h-1.669V56.95z" fill="#FEFEFE" mask="url(#p9mrsu7mxd)"/>
        <path d="M43.89 61.517c-.986.085-2.196.16-3.593.223-1.39.06-2.62.092-3.653.092h-.136l.175.88c.06.208.11.34.162.416.086.133.189.154.243.154h.036l.028-.02c.102-.067.204-.14.309-.213a41.06 41.06 0 0 1 2.362-.136v3.16h1.32v-3.227c.366-.006.928-.05 1.668-.131.235-.019.576-.054 1.138-.12l.286-.042-.044-1.077-.301.041z" fill="#FEFEFE" mask="url(#p9mrsu7mxd)"/>
        <path fill="#FEFEFE" mask="url(#p9mrsu7mxd)" d="M44.122 66.476h1.355v-9.502h-1.355zM39.218 58.875c.23-.104.6-.156 1.095-.156.482 0 .845.056 1.085.171.217.105.32.28.32.539 0 .298-.108.498-.335.61-.214.1-.576.151-1.07.151-.504 0-.863-.054-1.068-.161-.223-.119-.33-.326-.33-.636 0-.252.096-.422.303-.518m-.9 1.957c.46.327 1.132.492 1.995.492.858 0 1.529-.165 1.99-.492.473-.334.715-.805.715-1.396 0-.58-.242-1.052-.725-1.398-.471-.336-1.14-.51-1.98-.51-.854 0-1.523.167-1.99.498-.477.341-.72.8-.72 1.367 0 .622.243 1.105.715 1.439M47.32 58.34h3.597v-1.074H47.32zM48.174 61.138c.173-.092.472-.14.893-.14.429 0 .732.046.908.136.155.079.226.181.226.325 0 .164-.075.287-.226.376-.17.098-.475.148-.908.148-.42 0-.72-.05-.893-.148-.157-.091-.228-.21-.228-.376 0-.137.071-.238.228-.32m2.739 1.468c.426-.278.643-.657.643-1.126 0-.446-.204-.811-.606-1.088-.447-.301-1.082-.453-1.883-.453-.812 0-1.44.148-1.87.442-.403.273-.606.645-.606 1.099 0 .47.212.848.629 1.126.407.268 1.027.404 1.847.404.812 0 1.432-.136 1.846-.404M53.617 57.007v3.455h-1.896v1.19h1.896v1.37h1.356v-6.015z"/>
        <path fill="#FEFEFE" mask="url(#p9mrsu7mxd)" d="M46.006 59.697h6.18v-1.072h-6.18zM49.054 65.016h4.563v-.747h-4.563v.747zm-1.31 1.418h1.307v-.316h4.566v.316h1.356V63.19h-7.23v3.245z"/>
    </g>
</svg>
