<svg width="72" height="72" viewBox="0 0 72 72" xmlns="http://www.w3.org/2000/svg" xmlns:xlink="http://www.w3.org/1999/xlink">
    <defs>
        <path id="l3wbenx2ia" d="M0 .274h71.72v71.16H0z"/>
        <path id="vimbik6xic" d="M0 71.726h71.72V.566H0z"/>
    </defs>
    <g fill="none" fill-rule="evenodd">
        <g transform="translate(0 .293)">
            <mask id="hpfbpwn8db" fill="#fff">
                <use xlink:href="#l3wbenx2ia"/>
            </mask>
            <path d="M63.637 71.433H8.083c-4.465 0-8.083-3.59-8.083-8.02V8.294C0 3.866 3.618.273 8.083.273h55.554c4.465 0 8.083 3.593 8.083 8.022v55.117c0 4.431-3.618 8.021-8.083 8.021" fill="#000" mask="url(#hpfbpwn8db)"/>
        </g>
        <path d="M58.979 11.121c-2.147-2.499-4.623-3.903-5.527-3.134-.607.51-.345 1.863.528 3.449L50.712 14.2a14.339 14.339 0 0 1 2.174 2.076c.714.828 1.29 1.67 1.723 2.457l3.268-2.764c1.44 1.105 2.747 1.576 3.352 1.06.904-.766-.1-3.412-2.25-5.909M51.457 17.487c-3.06-3.559-6.583-5.556-7.875-4.465-.731.616-.566 2.096.244 3.897L26.14 31.886a.633.633 0 0 0-.197.684c.2.61.455 1.193.739 1.76l-4.54 3.838a.638.638 0 0 0-.192.684c.225.693.583 1.324 1.007 1.911l-6.6 5.582a.634.634 0 0 0-.074.901c.116.135.277.21.439.224a.666.666 0 0 0 .472-.152l6.596-5.583c.519.505 1.091.957 1.743 1.288l.24.067a.658.658 0 0 0 .472-.15l4.538-3.842c.518.367 1.057.708 1.635 1l.242.072a.651.651 0 0 0 .467-.153L50.814 25.05c1.667 1.075 3.114 1.47 3.842.854 1.292-1.09-.14-4.863-3.199-8.418zM32.702 37.379c-.82-.619-1.58-1.327-2.255-2.114a14.2 14.2 0 0 1-1.749-2.546l5.237-4.433 4.003 4.661-5.236 4.432zm7.355-9.314a.666.666 0 0 1-.473.15.641.641 0 0 1-.44-.223l-1.904-2.215a.635.635 0 0 1 .072-.9.647.647 0 0 1 .906.07l1.907 2.22c.23.266.199.67-.068.898zm2.829-2.397a.64.64 0 0 1-.47.149.632.632 0 0 1-.436-.222l-1.906-2.216a.63.63 0 0 1 .072-.9.65.65 0 0 1 .908.07l1.903 2.219a.632.632 0 0 1-.071.9zm2.832-2.399a.64.64 0 0 1-.467.151.645.645 0 0 1-.441-.222l-1.904-2.216a.636.636 0 0 1 .072-.902.645.645 0 0 1 .906.071l1.906 2.22a.632.632 0 0 1-.072.898zM16.385 54.726c.012-2.531-3.153-5.75-3.153-5.75s-3.199 3.188-3.215 5.715c-.01 1.743 1.409 3.165 3.165 3.174a3.168 3.168 0 0 0 3.203-3.139M29.666 60.976c-.255.235-.62.354-1.083.354-.463 0-.827-.127-1.087-.38a1.142 1.142 0 0 1-.345-.838c0-.328.121-.604.369-.838.248-.235.596-.35 1.063-.35.472 0 .845.124 1.111.373.24.22.356.487.356.815 0 .339-.13.63-.384.864m1.021.818c.462-.455.694-1.02.694-1.682 0-.658-.237-1.22-.707-1.673-.513-.495-1.22-.748-2.102-.748-.872 0-1.576.251-2.092.748-.463.447-.695 1.01-.695 1.673 0 .654.236 1.219.706 1.682.516.504 1.217.76 2.081.76.89 0 1.599-.256 2.115-.76M34.17 57.093h-1.358v5.883h1.357v-.619h1.326v-1.189H34.17v-1.254h1.326v-1.19H34.17zM26.745 64.28h6.067v2.24h1.357v-3.397h-7.424z" fill="#FEFEFE"/>
        <mask id="csgc7pb13d" fill="#fff">
            <use xlink:href="#vimbik6xic"/>
        </mask>
        <path d="M38.495 59.58h4.773v-.972h-4.773v.972zm-1.333 1.018h7.446v-3.015h-7.446v3.015zM35.893 62.02h4.377v.397h-3.108v1.017h6.105v.386h-6.105v2.427h7.676v-1.026h-6.343v-.386h6.113v-2.418H41.59v-.397h4.344v-1.038H35.893z" fill="#FEFEFE" mask="url(#csgc7pb13d)"/>
    </g>
</svg>
